<svg xmlns="http://www.w3.org/2000/svg" xmlns:xlink="http://www.w3.org/1999/xlink" version="1.0" x="0px" y="0px" viewBox="0 0 100 100" enable-background="new 0 0 100 100" xml:space="preserve"><rect x="70" y="53.748" fill="none" stroke="#000000" stroke-width="2" stroke-linecap="round" stroke-linejoin="round" stroke-miterlimit="10" width="20" height="20.001"></rect><polygon fill="none" stroke="#000000" stroke-width="2" stroke-linecap="round" stroke-linejoin="round" stroke-miterlimit="10" points="  60,80 35.001,80 40.002,70 55.002,70 "></polygon><path fill="none" stroke="#000000" stroke-width="2" stroke-linecap="round" stroke-linejoin="round" stroke-miterlimit="10" d="  M90,53.748v-1.249c0-2.761-2.239-5-5.001-5H75c-2.761,0-5,2.239-5,5v1.249H90z"></path><path fill="none" stroke="#000000" stroke-width="2" stroke-linecap="round" stroke-linejoin="round" stroke-miterlimit="10" d="  M70,73.751v1.248C70,77.761,72.239,80,75,80h9.999C87.761,80,90,77.761,90,74.999v-1.248H70z"></path><path fill="none" stroke="#000000" stroke-width="2" stroke-linecap="round" stroke-linejoin="round" stroke-miterlimit="10" d="  M70,52.499c0-2.761,2.239-5,5-5h9.999c0.002,0,0.002,0,0.004,0v-20c0-4.143-3.359-7.499-7.504-7.499H17.502  c-4.145,0-7.5,3.359-7.5,7.502L10,62.5c0,4.145,3.359,7.5,7.504,7.5H70V52.499z"></path></svg>