<svg xmlns="http://www.w3.org/2000/svg" xmlns:xlink="http://www.w3.org/1999/xlink" version="1.1" x="0px" y="0px" viewBox="0 0 512 512" style="enable-background:new 0 0 512 512;" xml:space="preserve"><style type="text/css">
	.st0{display:none;}
	.st1{display:inline;fill:none;stroke:#000000;stroke-width:0.1;stroke-miterlimit:10;}
</style><g class="st0"><rect class="st1" width="512" height="512"></rect><line class="st1" x1="0" y1="496" x2="512" y2="496"></line><line class="st1" x1="0" y1="480" x2="512" y2="480"></line><line class="st1" x1="0" y1="464" x2="512" y2="464"></line><line class="st1" x1="0" y1="448" x2="512" y2="448"></line><line class="st1" x1="0" y1="432" x2="512" y2="432"></line><line class="st1" x1="0" y1="416" x2="512" y2="416"></line><line class="st1" x1="0" y1="400" x2="512" y2="400"></line><line class="st1" x1="0" y1="384" x2="512" y2="384"></line><line class="st1" x1="0" y1="368" x2="512" y2="368"></line><line class="st1" x1="0" y1="352" x2="512" y2="352"></line><line class="st1" x1="0" y1="336" x2="512" y2="336"></line><line class="st1" x1="0" y1="320" x2="512" y2="320"></line><line class="st1" x1="0" y1="304" x2="512" y2="304"></line><line class="st1" x1="0" y1="288" x2="512" y2="288"></line><line class="st1" x1="0" y1="272" x2="512" y2="272"></line><line class="st1" x1="0" y1="256" x2="512" y2="256"></line><line class="st1" x1="0" y1="240" x2="512" y2="240"></line><line class="st1" x1="0" y1="224" x2="512" y2="224"></line><line class="st1" x1="0" y1="208" x2="512" y2="208"></line><line class="st1" x1="0" y1="192" x2="512" y2="192"></line><line class="st1" x1="0" y1="176" x2="512" y2="176"></line><line class="st1" x1="0" y1="160" x2="512" y2="160"></line><line class="st1" x1="0" y1="144" x2="512" y2="144"></line><line class="st1" x1="0" y1="128" x2="512" y2="128"></line><line class="st1" x1="0" y1="112" x2="512" y2="112"></line><line class="st1" x1="0" y1="96" x2="512" y2="96"></line><line class="st1" x1="0" y1="80" x2="512" y2="80"></line><line class="st1" x1="0" y1="64" x2="512" y2="64"></line><line class="st1" x1="0" y1="48" x2="512" y2="48"></line><line class="st1" x1="0" y1="32" x2="512" y2="32"></line><line class="st1" x1="0" y1="16" x2="512" y2="16"></line><line class="st1" x1="496" y1="0" x2="496" y2="512"></line><line class="st1" x1="480" y1="0" x2="480" y2="512"></line><line class="st1" x1="464" y1="0" x2="464" y2="512"></line><line class="st1" x1="448" y1="0" x2="448" y2="512"></line><line class="st1" x1="432" y1="0" x2="432" y2="512"></line><line class="st1" x1="416" y1="0" x2="416" y2="512"></line><line class="st1" x1="400" y1="0" x2="400" y2="512"></line><line class="st1" x1="384" y1="0" x2="384" y2="512"></line><line class="st1" x1="368" y1="0" x2="368" y2="512"></line><line class="st1" x1="352" y1="0" x2="352" y2="512"></line><line class="st1" x1="336" y1="0" x2="336" y2="512"></line><line class="st1" x1="320" y1="0" x2="320" y2="512"></line><line class="st1" x1="304" y1="0" x2="304" y2="512"></line><line class="st1" x1="288" y1="0" x2="288" y2="512"></line><line class="st1" x1="272" y1="0" x2="272" y2="512"></line><line class="st1" x1="256" y1="0" x2="256" y2="512"></line><line class="st1" x1="240" y1="0" x2="240" y2="512"></line><line class="st1" x1="224" y1="0" x2="224" y2="512"></line><line class="st1" x1="208" y1="0" x2="208" y2="512"></line><line class="st1" x1="192" y1="0" x2="192" y2="512"></line><line class="st1" x1="176" y1="0" x2="176" y2="512"></line><line class="st1" x1="160" y1="0" x2="160" y2="512"></line><line class="st1" x1="144" y1="0" x2="144" y2="512"></line><line class="st1" x1="128" y1="0" x2="128" y2="512"></line><line class="st1" x1="112" y1="0" x2="112" y2="512"></line><line class="st1" x1="96" y1="0" x2="96" y2="512"></line><line class="st1" x1="80" y1="0" x2="80" y2="512"></line><line class="st1" x1="64" y1="0" x2="64" y2="512"></line><line class="st1" x1="48" y1="0" x2="48" y2="512"></line><line class="st1" x1="32" y1="0" x2="32" y2="512"></line><line class="st1" x1="16" y1="0" x2="16" y2="512"></line></g><path d="M326.9,215.8v-43.9c0-36.4-29.6-65.9-65.9-65.9h-10c-36.4,0-65.9,29.6-65.9,65.9v43.9c-22.9,19.9-37.4,49.2-37.4,81.8  c0,59.8,48.5,108.3,108.3,108.3s108.3-48.5,108.3-108.3C364.3,265,349.8,235.6,326.9,215.8z M197.8,171.8  c0-29.4,23.9-53.2,53.2-53.2h10c29.4,0,53.2,23.9,53.2,53.2v34.4c-16.8-10.7-36.8-17-58.2-17s-41.4,6.2-58.2,17V171.8z M272.4,331.9  h-32.9L246,293c-3.9-3-6.5-7.7-6.5-13c0-9.1,7.3-16.4,16.4-16.4c9.1,0,16.4,7.3,16.4,16.4c0,5.3-2.5,10.1-6.5,13L272.4,331.9z"></path><path d="M256,506c-66.8,0-129.6-26-176.8-73.2S6,322.8,6,256S32,126.4,79.2,79.2S189.2,6,256,6s129.6,26,176.8,73.2  S506,189.2,506,256s-26,129.6-73.2,176.8S322.8,506,256,506z M256,22C127,22,22,127,22,256s105,234,234,234s234-105,234-234  S385,22,256,22z"></path></svg>